<?xml version="1.0" encoding="utf-8"?>
<!-- Svg Vector Icons : http://www.onlinewebfonts.com/icon -->
<!DOCTYPE svg PUBLIC "-//W3C//DTD SVG 1.1//EN" "http://www.w3.org/Graphics/SVG/1.1/DTD/svg11.dtd">
<svg version="1.1" xmlns="http://www.w3.org/2000/svg" xmlns:xlink="http://www.w3.org/1999/xlink" x="0px" y="0px" viewBox="0 0 1000 1000" enable-background="new 0 0 1000 1000" xml:space="preserve">
<metadata> Svg Vector Icons : http://www.onlinewebfonts.com/icon </metadata>
<g><g transform="translate(0.000000,511.000000) scale(0.100000,-0.100000)"><path d="M6472.3,4526.9v-483.1h878.8h881.1L6971.5,2783.1L5713.1,1524.8l349.7-352l352-349.7l1258.4,1258.4l1260.7,1260.6v-881.1v-878.8h483.1H9900v1713.9V5010H8186.2H6472.3V4526.9z"/><path d="M2324.6-1863.8L1066.2-3122.2v881.1v878.8H583.1H100v-1713.8V-4790h1713.8h1713.9v483.1v483.1h-878.8h-881.1L3017-2574.6c685.5,685.5,1246.9,1258.4,1246.9,1269.9c0,13.8-151.8,177.1-340.5,363.5l-338.2,338.2L2324.6-1863.8z"/></g></g>
</svg>